# xmcd
#
# Track frame offsets: 
#        187
#        18147
#        26137
#        42527
#        53640
#        67180
#        82150
#        94390
#        110867
#        120917
#        136450
#        146410
#        158862
#        170515
#        180727
#        193005
#        209817
#        223800
#        238390
#        250502
#        262992
#        273602
#        288590
#        298790
#        309897
#
# Disc length: 4277 seconds
#
# Revision: 4
# Processed by: cddbd v1.5.2PL0 Copyright (c) Steve Scherf et al.
# Submitted via: ExactAudioCopy v1.3
#
DISCID=8f10b319
DTITLE=Buddy Guy - The Complete Chess Studio Recording 2 (US CHD2-9337
DTITLE=)
DYEAR=1992
DGENRE=Blues
TTITLE0=Worried Mind (a.k.a. Stick Around)
TTITLE1=Untitled Instrumental
TTITLE2=Moanin'
TTITLE3=I Dig Your Wig (Unedited)
TTITLE4=My Time After Awhile
TTITLE5=Night Flight
TTITLE6=Crazy Love (Crazy Music)
TTITLE7=Every Girl I See
TTITLE8=Too Many Ways
TTITLE9=Leave My Girl Alone
TTITLE10=Got To Use Your Head
TTITLE11=Keep It To Myself (a.k.a. Keep It To Yourself)
TTITLE12=My Mother
TTITLE13=She Suits Me To A Tee
TTITLE14=Mother-In-Law Blues
TTITLE15=Buddy's Groove
TTITLE16=Going To School
TTITLE17=I Cry And Sing The Blues
TTITLE18=Goin' Home
TTITLE19=I Suffer With The Blues
TTITLE20=Lip Lap Louie
TTITLE21=My Time After Awhile (alternate vocal and mix)
TTITLE22=Too Many Ways (alternate with background vocal)
TTITLE23=Keep It To Myself (alternate with organ overdub)
TTITLE24=I Didn't Know My Mother (She Suits Me To A Tee alternate)
EXTD=
EXTT0=
EXTT1=
EXTT2=
EXTT3=
EXTT4=
EXTT5=
EXTT6=
EXTT7=
EXTT8=
EXTT9=
EXTT10=
EXTT11=
EXTT12=
EXTT13=
EXTT14=
EXTT15=
EXTT16=
EXTT17=
EXTT18=
EXTT19=
EXTT20=
EXTT21=
EXTT22=
EXTT23=
EXTT24=
PLAYORDER=
